<svg version="1" xmlns="http://www.w3.org/2000/svg" width="933.333" height="933.333" viewBox="0 0 700.000000 700.000000"><path d="M0 350v350h700V0H0v350zm225-68v225h387v137H88V57h137v225zM416 61.5V66h15v9h8v19h-16v17h8v19h-8v19h-3.5c-3.5 0-3.5 0-3.5 4.5v4.5h-8v8h8v4.5c0 4.4 0 4.5 3.4 4.5h3.3l.7 9 .8 9h6.8v28h8v64h7v28h-8v-19h-15v10h7v63h-14v-27h7v-28h-16v4.5c0 4.5 0 4.5-3.5 4.5H400v17.9l-3.7.3-3.8.3-.3 8.7-.3 8.8H385v10h-14.9l-.3-4.8c-.3-4.5-.4-4.7-3.5-5l-3.3-.3V340h7v-19h-8v-8h-8v-4.5c0-4.5 0-4.5-3.5-4.5H347v-28h-8v-27h-8v-19h8v-28h6.9l.3-8.8.3-8.7 3.8-.3c3.7-.3 3.7-.4 3.7-4.8V175h8v-9h15v-17h-23v-19h15v-4.5c0-4.5 0-4.5-3.5-4.5H362V84h7V66h16v-9h31v4.5zM439 408v32h15v9h14v9h-28.8l-.8-9-.7-9H422v-4.5c0-4.5 0-4.5-3.5-4.5H415v-18h-8v-11.8c0-6.4.3-14.7.7-18.5l.6-6.7H439v32zm-38-9v14h-8v27h-31v-55h39v14zm-23 55v5h14v9h8v8h-45v-8h8.2l-.7-9.5-.7-9.5H378v5z"/><path d="M121 135v16h10v-17h62v-15h-72v16zM136.3 222c-11.3 1.7-16.3 8-16.3 20.5 0 9.8 2.7 15.1 9.5 18.5 4.9 2.5 5.4 2.5 34.3 2.8l29.2.3v-15l-29.6-.3-29.6-.3-1.9-2.4c-2.4-2.9-2.4-4.3 0-7.2l1.9-2.4 29.6-.3 29.6-.4V221l-25.7.1c-14.2.1-28.1.5-31 .9zM132.8 338.4c-6.1 2.2-8.8 4.5-10.9 8.9-2.1 4.6-2.5 14.1-.9 19.6 2.1 7.4 10.4 12.1 21.2 12.1h4.8v-15h-6.3c-9.4 0-13.3-4-9.3-9.6 1.3-1.8 3-1.9 23.8-2.2 25.3-.3 27.1.1 27.6 5.8.5 4.6-1.7 6-9.5 6H167v15h4.8c7.3 0 14.6-2.5 17.6-6 6.1-7.3 6.1-22.8 0-29.3-5.4-5.8-7-6.2-30.9-6.4-16.6-.2-22.9.1-25.7 1.1zM121.2 455.3l.3 7.2 7 1 7 1v12l-5 .7c-10.1 1.6-9.5 1.1-9.5 8.3 0 5.3.3 6.5 1.6 6.5 1.4 0 62.2-11.2 68.2-12.5 2.2-.5 2.3-.9 2-9.2l-.3-8.7-33-6.2c-18.1-3.5-34.3-6.5-35.8-6.8l-2.8-.6.3 7.3zm38.3 12.7c11.6 1.5 14.8 2.1 14.3 2.5-.3.3-26.8 4.5-28.5 4.5-.2 0-.3-2-.3-4.5v-4.6l3.3.5c1.7.3 6.8 1 11.2 1.6zM353.8 555.3c-5.6 1-8 2.7-3.8 2.7 1.1 0 2.3.7 2.6 1.5.4.8-1.5 12.3-4.1 25.6-4.3 22.5-4.5 24.2-3 26.5 1.7 2.6 3.5 3 6.8 1.3 2.8-1.5 9.7-8 9.7-9.3 0-.5-1 0-2.3 1.2-2.8 2.6-5.7 2.9-5.7.4 0-.9 2-12.1 4.5-24.7 2.5-12.7 4.5-23.8 4.5-24.8 0-1.9-.6-1.9-9.2-.4zM380.1 556.6c-2.6 3.3-2.7 5.6-.3 7.7 2.5 2.3 3.9 2.1 6.7-.8 2.9-2.8 3.2-5.7.9-7.9-2.3-2.3-5-1.9-7.3 1zM445.1 556.6c-2.6 3.4-2.7 5.6 0 8 1.9 1.7 2.3 1.7 4.7.3 3.8-2.1 5.1-6.3 2.7-8.9-2.5-2.7-4.9-2.5-7.4.6zM254 557.7c0 .7.9 1.3 2 1.3s2.3.7 2.6 1.5c.8 2.1-7.5 45.5-9.2 48.2-.8 1.3-2.3 2.3-3.4 2.3-1 0-2.2.5-2.6 1.1-.4.7 4.6 1 17.3.7l17.9-.3 6.6-3.3c11.8-5.8 18-15.9 18.2-29.8.1-9.7-3.3-15.5-11.8-19.8-5.7-3-6.1-3-21.7-3.1-12.1 0-15.9.3-15.9 1.2zm29 3.1c7.3 3.6 10.2 12.4 8.1 24.6-2.3 13.6-7.7 21.5-16.5 24.1-6.2 1.9-9.7 1.9-12.1.1-1.8-1.3-1.8-2 2.4-23.7 2.3-12.3 4.6-23.4 5.1-24.7.8-1.8 1.7-2.2 5.2-2.2 2.4 0 5.9.8 7.8 1.8zM136.9 563.1c-8.7 1.3-15.2 6.6-16.5 13.5-2.7 14.3 4.7 24.8 17.6 24.8 7.9 0 12.3-2.5 22.5-13 5-5 10-9.7 11.2-10.3 5.4-2.7 11.3-.4 11.3 4.4 0 2.9-1.3 3.8-6.5 4.5l-4 .5.9 6.4.8 6.3 3.9-.5c10.3-1.4 15.4-7.2 15.4-17.7 0-12.1-7-19.4-18.5-19.3-7.8.1-10.9 2-22 13.4-8.2 8.4-10.1 9.8-13.7 10.4-5.5.9-8.3-.7-8.3-4.5 0-3.5 2.7-5.5 8.7-6.5 4.1-.6 4.1-.7 3.6-4.3-1.2-8.7-1.3-8.8-6.4-8.1zM322.3 577.7c-14.1 9.6-18.5 30.7-7.4 35.3 2.6 1 3.6.9 7.3-.9 4.7-2.3 12.2-8 11.4-8.8-.3-.3-1.8.4-3.4 1.6-3.4 2.4-8.4 2.8-10.1.7-.7-.8-1.5-3-1.8-5-.5-3.2-.3-3.5 2.3-4.1 9.3-2 18.4-9 18.4-14.1 0-1.4-1.1-3.6-2.5-4.9-3.4-3.5-8.9-3.4-14.2.2zm7.2 1.4c.4 1.2 0 4-1 6.5-2.4 6.4-9.5 11.3-9.5 6.5 0-2.4 2.7-9.9 4.6-12.8 1.8-2.9 5.1-3 5.9-.2zM376 576.7c-3.6 2.4-8 6.5-8 7.6 0 .4 1.4-.1 3.1-1.4 5-3.5 5.5-1.6 3 10.8-2.8 14.4-2.8 18 .3 19.4 2.9 1.4 7-.6 12.2-5.7 3.8-3.8 4.1-6 .3-2.5-2.4 2.2-4.4 2.7-5.4 1.2-.3-.5.6-6.7 2-13.7 2.2-11.6 2.3-13 1-15.1-1.8-2.7-5.1-3-8.5-.6zM400.8 578.4c-3.9 3-5.8 5.4-5.8 7.3 0 .2 1.4-.7 3.1-2.2 5.3-4.4 5.6-2.4 2.5 14.1-2.9 15.6-2.8 16.4 1.9 16.4 3.3 0 4.1-1.2 5.9-8.5 2-8.2 6.7-18.3 9.6-21 1.8-1.6 2.4-1.7 6-.5 4.7 1.6 7 .3 7-3.9 0-9.4-11.7-4.6-17.4 7.2-2.8 5.8-3.1 5.3-1.5-2.3.9-4.3.8-5.5-.5-7.5-2.3-3.4-5.5-3.2-10.8.9zM438.9 578.2c-2.3 1.8-4.9 4.4-5.8 5.8-1.6 2.4-1.5 2.4 2.2-.4 5.8-4.4 6.4-2.8 3.8 10.1-2.8 14.4-2.8 18 .3 19.4 2.9 1.4 6.6-.4 11.9-5.7 3.9-4 4.3-6.3.4-2.6-2.5 2.3-4.2 2.8-5.1 1.3-.3-.5.5-6.7 1.8-13.7 2.2-11.5 2.3-13.1 1-15.2-2-3.1-5.5-2.8-10.5 1zM468.5 576.2c-2.7 1.4-9.5 8-9.5 9.1 0 .5 1.4-.3 3.1-1.8 5.9-4.9 6.3-3.2 3.4 13.5-1 5.8-1.5 11.7-1.2 13.2 1 3.7 4 4.4 8.1 1.9 3.2-2 10.6-10.5 10.6-12.3 0-.4.4-.8.8-.8.5 0 .4 2.5-.1 5.5-1 5.1-.9 5.8 1 7.7 1.5 1.4 2.8 1.9 4.5 1.5 2.8-.7 11.8-8.3 11.8-10 0-.6-1-.1-2.3 1.1-3.1 2.9-5.7 2.9-5.7-.1 0-1.3 1.1-8.1 2.5-15.2 1.4-7.2 2.5-13.3 2.5-13.8 0-.4-1.9-.7-4.3-.7h-4.3l-1.7 7.1c-2.7 11-9.1 22.9-12.4 22.9-1.7 0-1.7-3.9.2-13.7 1.8-9.4 1.9-13.5.3-15.1-1.5-1.5-4.6-1.5-7.3 0zM515.5 576.2c-2.7 1.4-9.5 8-9.5 9.1 0 .5 1.4-.3 3.1-1.7 6.2-5.3 6.6-3.6 3.1 14.7l-2.9 14.7 2.4.6c4.2 1.1 6.9-.9 7.7-5.5 1.6-10 8.9-24.1 12.6-24.1 2.7 0 2.6 2.1-.5 16.6-2.7 12.4-2.6 13.4 2 13.4 3.3 0 4.1-1.2 5.9-8.4 3.3-13.4 11.3-25.2 14-20.8.3.5-.4 5.1-1.4 10.3-2.7 13-2.6 16.7.4 18 2.9 1.4 7-.6 12.2-5.7 3.8-3.8 4.1-6 .3-2.5-2.4 2.2-4.4 2.7-5.3 1.2-.3-.5.3-5.3 1.4-10.6 3.1-15.2 2.3-20.5-3.1-20.5-2.2 0-9.2 6.1-11.6 10.1-2.4 4-3.2 3.6-2.6-1.1.7-4.7-1.7-9-4.9-9-3.1 0-8.2 4.3-11.9 10-1.8 2.7-3.4 5-3.6 5-.1 0 0-2.7.4-6 .4-4.1.2-6.4-.7-7.5-1.5-1.8-4.7-1.9-7.5-.3zM408 107.5c0 4.5 0 4.5 3.5 4.5s3.5 0 3.5-4.5 0-4.5-3.5-4.5-3.5 0-3.5 4.5zM362 271.5V285h8v-9h8v-18h-16v13.5zM423 262.6v4.5l3.8-.3c3.6-.3 3.7-.4 4-4.6l.3-4.2H423v4.6zM423 280.5v4.5h8v-9h-8v4.5z"/></svg>