<svg version="1" xmlns="http://www.w3.org/2000/svg" width="2560" height="2560" viewBox="0 0 1920.000000 1920.000000"><path d="M0 960v960h1920V0H0v960zm1139.8-791.3l.3 12.3h40.9v25h21v51h-41v49h21v6.7c0 3.8-.3 15.2-.7 25.5l-.6 18.8H1161v50h-21v25h-21v24h21v24.9l10.3.3 10.2.3.3 24.7.2 24.8h21v75h20v175h21v76h-21v-50h-42v-25h21v-25h-21v-26h21v-24h-41v125h-42v25h-21v31.2c0 17.2-.3 39.7-.7 50l-.6 18.8H1056v25l-20.7-.2-20.8-.3-.3-12.3-.3-12.2h21.1v-75h-42v-25h-21v-25H952.3l-.6-18.8c-.4-10.3-.7-27.1-.7-37.5V757h-20v-75h-21v-51h20v-75h21v-50h21v-25h21v-25h42v-49h-63l.2-25.3.3-25.2 20.8-.3 20.7-.2v-23.9l-10.2-.3-10.3-.3-.3-50.3-.2-50.2h21v-50h42v-25l41.8.2 41.7.3.3 12.2zM616 775v618h1063v371H241V157h375v618zm565 157v25H1159.7l.6-18.8c.4-10.3.7-21.5.7-25V907h20v25zm21 187v87h42v26h-42v-25h-42v-25h-21v-50h-21v-100h84v87zm-104-24.5v37.5h-21v75h-84v-150h105v37.5zm-63 150v12.5h-42v-25h42v12.5z"/><path d="M1119 294.5V307h20v-25h-20v12.5zM993 744.5V782h22v25h20v-25h21v-51h21v-24h-84v37.5zM330 370.5V415h29l.2-22.8.3-22.7 85.3-.3 85.2-.2v-43H330v44.5zM375 607.1c-25.5 3-39.6 14-45.6 36-2.6 9.1-2.5 35.7 0 44.9 3.8 14 10.9 23.1 22.3 28.9 13.5 6.8 9.4 6.5 98.1 6.8l80.2.4V681h-76.2c-85.7 0-85.7 0-91.5-6.4-2.9-3.1-3.3-4.3-3.3-8.8 0-6.6 2.4-10.8 7.6-13.4 3.7-1.8 7.3-1.9 83.7-2.2l79.7-.2v-44l-73.7.1c-40.6.1-77.2.5-81.3 1zM373.7 924c-19.2 3.3-33.3 12.5-40.1 25.8-4.7 9.3-6 16.5-6 32.7 0 16.8 1.4 23.8 6.6 33.7 8.8 16.5 25.7 23.8 55.3 23.8H404v-42.8l-18.2-.4c-14.9-.2-18.9-.6-21.4-2-6.9-3.8-8.5-15.9-3-21.7 5.2-5.5 6.9-5.6 69.6-5.6 62.4 0 62.2 0 67.5 5.5 2.3 2.4 2.9 4.1 3.3 8.7.3 4.9 0 6.4-2 9.3-3.4 5.1-6.9 5.9-25.5 5.9l-16.3.1v43h13.9c16.7 0 27.2-1.8 36.1-6.2 11.5-5.6 18.8-14.9 22.6-28.9 2.6-9.1 2.6-34.8.1-43.9-4.1-15.1-11.3-24.3-23.9-30.4-14.6-7.1-13.3-7-73.8-7.2-30-.1-56.7.2-59.3.6zM330 1248.5c0 20.4 0 20.5 2.3 21 1.2.2 9.9 1.6 19.2 3 9.4 1.5 17.8 2.9 18.8 3.1 1.5.5 1.7 2.1 1.7 15.4v14.8l-21 3.3-21 3.3v20.3c0 11.2.1 20.3.3 20.3.1-.1 45-8.5 99.7-18.8l99.5-18.8.3-25 .2-25-99.2-18.7c-54.6-10.3-99.6-18.8-100-18.7-.5 0-.8 9.2-.8 20.5zm107.3 36.5c20.1 2.7 37.1 5 37.8 5 .7 0 1 .2.7.5-.3.3-16.7 2.8-36.4 5.5s-36.9 5.1-38.1 5.3c-2.3.4-2.3.3-2.3-10.4 0-6 .4-10.9.9-10.9s17.3 2.2 37.4 5zM982.9 1519.6c-5.9 1.3-14.9 2.9-20 3.7l-9.4 1.3-.3 3.2c-.3 3.1-.2 3.2 3.8 3.2 4.6 0 11 2.3 11 4 0 .7-5.4 29.1-12.1 63.3-6.6 34.2-12.2 64.9-12.5 68.2-1.4 15.5 11 22.9 25.4 15 6.8-3.7 18.2-13.5 23-19.8 3.9-5 4.1-5.6 3.1-8.6l-1.2-3.3-6.6 6.5c-9.5 9.3-13.3 10.6-14.7 5.1-.8-3-.7-3.1 12.6-71.4 6.1-31.1 11.5-58.7 12.1-61.4.5-2.7.9-6.4.9-8.2 0-4.1-.1-4.1-15.1-.8zM1050 1519.2c-11 3.1-17.2 16.4-12.3 26.5 2.4 5.2 6.7 7.5 13 7 9-.6 16-8 16.9-17.9 1.1-11.1-7.4-18.6-17.6-15.6zM1228.8 1519c-8.3 2.5-14.8 11-14.8 19.2 0 17.7 22.3 20.1 30.1 3.3 5.9-12.6-3.4-26.2-15.3-22.5zM695.9 1527.8c-1.6 4.1-1.1 5 3.4 5.7 2.3.3 5.5 1.1 7.1 1.7 2.9 1.2 2.9 1.2 2.3 8.2-.5 6.8-21.4 115-23.7 122.8-.6 2.1-1.7 4.4-2.6 5.2-1.7 1.8-7.7 3.6-11.6 3.6-3 0-4.8 2.4-4.8 6.4v2.6h32.8c45.9 0 61.6-1.7 79-8.6 15.6-6.2 30.8-18.1 39.5-30.8 12.6-18.7 19.4-48.2 15.8-69.1-4.6-26.4-23.6-44-52.8-49-6.9-1.1-16.8-1.4-46.2-1.2l-37.3.2-.9 2.3zm75.8 9c24.3 9.4 33 36.5 24.4 76-4.3 19.6-11 33.9-21 44.4-7.5 8-16.6 13-28.1 15.4-9.8 2-22.5 1.6-26.4-1-2.8-1.8-2.8-1.9-2.4-10 .5-7.7 20.8-114.2 23.2-121.6.6-1.9 2.2-4 3.6-4.8 3.7-2 20.1-1 26.7 1.6zM371 1543.5c-29.2 6.1-42.1 21-43.7 50.5-.9 18.2 3.1 30.9 13.3 41.9 6.1 6.6 15.8 12.2 24.5 14.1 8 1.8 25.6.8 33.9-1.9 14.1-4.5 25.7-13.6 45.2-35.6 21-23.5 25.7-27.1 37.3-28.2 11.8-1.1 19.5 4 19.5 12.8 0 7.5-7.6 11.9-20.4 11.9-3.4 0-6.7.4-7.4.9-1.1.7-1 4 .9 19.1l2.3 18.3 8.1-.6c19.1-1.3 33.7-8.6 41.4-20.5 9.2-14.4 9.4-41.9.4-59.6-3.8-7.4-12.6-16.2-19.7-19.5-8.2-3.9-14.8-5.1-26.9-5-23.5.1-33.4 6-58.2 34.4-23 26.3-28.9 30.5-44.5 31.2-7.3.4-9 .1-11.8-1.6-8.3-5.3-6.1-17.4 4.2-22.8 3.4-1.8 16.2-4.2 22.4-4.3 2.7 0 4.2-.4 4.1-1.3 0-.6-1.3-8.9-2.7-18.2l-2.7-17-6.5-.2c-3.6-.1-9.4.5-13 1.2zM893.5 1577.8c-20.4 7-40.4 31.1-46.6 56.2-1.7 6.8-2 10.3-1.6 18.5.6 12.7 2.7 18.6 8.6 24.5 8.4 8.3 18.9 9.3 31.7 3.2 8.8-4.3 22.2-14 27.7-20.1 3.7-4.1 3.9-5.8 1.1-10.3-.3-.5-3.2 1.5-6.3 4.5-11.9 11.3-22.1 13.6-28.7 6.4-3.8-4.1-5.4-9.1-5.4-16.9v-5.7l3.8-.6c19.6-3.1 41.2-14.7 49.2-26.5 2.8-4.2 3.5-6.3 3.8-11.5.5-7.9-1-12.6-5.6-17-6.4-6.3-21-8.4-31.7-4.7zm7.6 8.3c3.2 3.2 2.4 14.4-1.6 22.2-4.9 9.8-17.1 20.7-23 20.7-1.9 0-1.7-1 1.6-14.2 5.8-23.2 15.9-35.8 23-28.7zM1032.6 1579.3c-6.6 3.5-21.3 16.9-24.6 22.2-2 3.2-1.8 5.6.6 8.4.2.2 3.2-2.6 6.8-6.2 3.6-3.7 7.6-6.9 9-7.3 3.4-.8 5.6 1.1 5.6 4.9 0 1.7-2.7 16.9-6.1 33.7-6.5 32.7-7 38.7-3.1 43.9 4.7 6.6 12.9 7.5 22.4 2.7 7-3.6 18.5-13.2 23.6-19.9 3.9-5 4.1-5.6 3.1-8.5-.6-1.8-1.2-3.2-1.4-3.2-.2 0-3.1 2.9-6.5 6.4-3.4 3.5-7.5 7-9.2 7.7-2.7 1.1-3.2 1-4.4-.6-.8-1-1.4-2.9-1.4-4.2 0-1.3 2.7-16.1 6-32.9 3.3-16.8 6-32.4 6-34.7 0-13.7-12.9-19.8-26.4-12.4zM1108.4 1578.5c-6.6 3.3-17.1 12-22.8 19-4.8 6-5.3 7.3-3.5 10.6 1 1.9 1.6 1.5 8.5-5 8.1-7.7 11.6-9 13.5-4.9 1 2.2-1.7 17.6-12 70.5l-2.7 14.2 2 .5c2.7.7 20.5.7 23.1 0 1.7-.4 2.5-2.6 4.9-13.7 3.2-14.8 7-27.3 11.7-38 7.5-17.1 18-31.7 22.8-31.7 1.2 0 4.8 1.3 8.1 3 3.3 1.6 7.4 3 9.2 3 7.5 0 13.2-7.1 13.2-16.5 0-9.8-4.2-13.5-15.4-13.5-5.1 0-6.5.5-12 4.2-7.8 5.1-17.5 17.2-23.1 28.5-2.3 4.6-4.2 8.3-4.3 8.3-.2 0 .5-4.2 1.5-9.3 2.4-12.1 2.4-20.3.1-24.6-3.9-7.2-13.7-9.1-22.8-4.6zM1210.7 1579.1c-6.5 3.7-17.2 13-22.8 20.2-3.4 4.3-3.7 5-2.7 7.7.5 1.7 1.3 3 1.6 3 .4 0 3.6-3 7.1-6.5 6.7-6.8 10.1-8.6 12.6-6.5 2.4 2 1.8 6.9-3.9 35.6-6.6 33.1-7 36.1-5.7 41.1 4.4 16.4 21.4 14.5 41.1-4.7 10.3-10 11.6-12.1 10-16.1l-1.3-3-6.6 6.4c-9.5 9.3-13.3 10.6-14.7 5.1-.3-1.3 2.2-16.4 5.5-33.6 6.4-32.8 7-37.8 4.7-43.1-2.4-5.8-5.9-8.1-12.9-8.4-5.4-.3-6.9 0-12 2.8zM1285.4 1578.5c-6.7 3.3-17.9 12.9-23.2 19.7-4.5 5.9-4.9 7.4-2.9 10.2 1.3 1.7 1.8 1.4 6.8-3.9 8-8.5 13-10.6 15-6.2 1.1 2.4 0 9.5-6.2 41.2-3.6 18.7-4.2 32.7-1.6 38.8 2.8 6.6 11.3 8.5 19.6 4.5s24.6-21 31.6-33.1c1.5-2.6 2.9-4.6 3.1-4.5.2.2-.3 3.2-1.1 6.6-2.3 9.7-2.9 19.4-1.6 23.5 2.4 7.3 10.4 11.1 18.4 8.7 8.1-2.3 19.9-11.2 29-21.9 3.5-4.1 4.5-6 4.1-7.6-1.4-4.6-2.4-4.4-8.5 2-9.3 9.7-14.9 10.8-14.9 3 0-2.9 13.3-76.2 14.6-80.7.4-1.4-.7-1.7-7.8-2.3-4.6-.3-10.7-.3-13.7.2l-5.5.8-2.7 13c-5.3 25.4-17 52.1-28.2 64.2-4.4 4.7-7 5.4-8.8 2.2-1.3-2.6-1.1-4.2 4.8-34.9 5-26.1 5.5-33.8 2.9-38.8-3.8-7.4-13.8-9.4-23.2-4.7zM1414.4 1578.5c-6.7 3.3-17.9 12.9-23.2 19.7-4.5 5.9-4.9 7.4-2.9 10.2 1.3 1.7 1.8 1.4 6.8-3.9 8.1-8.5 13-10.6 15-6.1.9 1.9-.4 10.4-6.6 43.1-6.4 33.6-7.5 40.9-6.4 41.6 1.5 1 20.2 1.2 23.5.3 1.8-.5 2.5-2.4 4.8-13.2 3.7-17.1 8.5-31.2 15.1-44 9-17.7 17.7-26.8 22.1-23.2 2.4 2.1 1.4 9.3-6.7 46.9-5.4 25.4-6.7 32.6-5.7 33.3 1.6 1 22.9 1 24.5 0 .7-.4 2.8-7.5 4.7-15.7 5.4-23.8 11.1-38 21.1-53.1 6.1-9.1 9.6-12.4 13.1-12.4 4.9 0 4.6 5.8-2.1 37-5.9 27.6-6.3 31.4-3.7 37.2 6.1 13.9 22.1 10.7 41.3-8.2 9.2-9.1 10.5-11.2 8.9-15.1l-1.3-3-6.6 6.4c-7.3 7.1-10.2 9-12.5 8.1-3.7-1.4-3.4-4.3 3.9-38.9 7.7-36.2 5.4-48.2-9.3-49.3-4.7-.3-6.8 0-10.3 1.8-5.9 3.1-18.4 15.7-24.8 25.2-2.8 4.3-5.3 7.8-5.5 7.8-.1 0 .1-2.8.6-6.3 1.2-7.8.4-17.7-1.7-21.7-3.8-7.4-14.1-9.2-23-4.1-6.7 3.9-18.4 16.3-25.7 27.5-5.1 7.6-5.9 8.5-5.3 5.6 3.7-19.5 3.8-24.9 0-30.6-3.7-5.7-13.8-7-22.1-2.9z"/></svg>