<?xml version="1.0" encoding="UTF-8"?>
<!-- Created with Inkscape (http://www.inkscape.org/) -->
<svg id="SVGRoot" width="50px" height="50px" version="1.1" viewBox="0 0 50 50" xmlns="http://www.w3.org/2000/svg" xmlns:cc="http://creativecommons.org/ns#" xmlns:dc="http://purl.org/dc/elements/1.1/" xmlns:rdf="http://www.w3.org/1999/02/22-rdf-syntax-ns#">
 <metadata>
  <rdf:RDF>
   <cc:Work rdf:about="">
    <dc:format>image/svg+xml</dc:format>
    <dc:type rdf:resource="http://purl.org/dc/dcmitype/StillImage"/>
    <dc:title/>
   </cc:Work>
  </rdf:RDF>
 </metadata>
 <path d="m25 0a25 25 0 0 0-25 25 25 25 0 0 0 25 25 25 25 0 0 0 25-25 25 25 0 0 0-25-25zm-11.6 12.5c13.1 0.471 23.6 11 24.1 24.1 0.0181 0.504-0.39 0.922-0.895 0.922h-2.68c-0.481 0-0.873-0.38-0.893-0.861-0.437-10.7-9-19.2-19.7-19.7-0.481-0.0198-0.863-0.411-0.863-0.893v-2.68c0-0.504 0.418-0.913 0.922-0.895zm0.0156 8.05c8.64 0.467 15.5 7.38 16 16 0.0276 0.51-0.382 0.938-0.893 0.938h-2.68c-0.47 0-0.864-0.361-0.895-0.83-0.407-6.25-5.41-11.2-11.7-11.7-0.469-0.0305-0.83-0.425-0.83-0.895v-2.68c0-0.51 0.428-0.92 0.938-0.893zm2.64 9.8c1.97 0 3.57 1.6 3.57 3.57 0 1.97-1.6 3.57-3.57 3.57s-3.57-1.6-3.57-3.57c0-1.97 1.6-3.57 3.57-3.57z" fill="#dad4ca"/>
</svg>
