<?xml version="1.0" encoding="UTF-8"?>
<!-- Created with Inkscape (http://www.inkscape.org/) -->
<svg id="SVGRoot" width="50px" height="50px" version="1.1" viewBox="0 0 50 50" xmlns="http://www.w3.org/2000/svg" xmlns:cc="http://creativecommons.org/ns#" xmlns:dc="http://purl.org/dc/elements/1.1/" xmlns:rdf="http://www.w3.org/1999/02/22-rdf-syntax-ns#">
 <metadata>
  <rdf:RDF>
   <cc:Work rdf:about="">
    <dc:format>image/svg+xml</dc:format>
    <dc:type rdf:resource="http://purl.org/dc/dcmitype/StillImage"/>
    <dc:title/>
   </cc:Work>
  </rdf:RDF>
 </metadata>
 <path d="m25 0a25 25 0 0 0-25 25 25 25 0 0 0 25 25 25 25 0 0 0 25-25 25 25 0 0 0-25-25zm5.77 12.8c1.77 0 3.37 0.744 4.49 1.94 1.39-0.266 2.72-0.782 3.9-1.49-0.457 1.43-1.43 2.63-2.7 3.39 1.24-0.133 2.44-0.475 3.54-0.951-0.837 1.22-1.88 2.3-3.08 3.18 0.019 0.266 0.0195 0.534 0.0195 0.801 0 8.13-6.19 17.5-17.5 17.5-3.48 0-6.72-1.01-9.44-2.76 0.495 0.0571 0.97 0.0762 1.48 0.0762 2.87 0 5.52-0.971 7.63-2.63-2.7-0.0571-4.97-1.83-5.75-4.26 0.381 0.0571 0.762 0.0957 1.16 0.0957 0.552 0 1.1-0.0758 1.62-0.209-2.82-0.571-4.93-3.05-4.93-6.04v-0.0762c0.818 0.457 1.77 0.743 2.78 0.781-1.66-1.1-2.74-2.99-2.74-5.12 0-1.14 0.305-2.19 0.838-3.1 3.03 3.73 7.58 6.17 12.7 6.44-0.0951-0.457-0.152-0.934-0.152-1.41 0-3.39 2.74-6.15 6.15-6.15z" fill="#dad4ca"/>
</svg>
