<svg viewBox="0 0 50 50" xmlns="http://www.w3.org/2000/svg">Email<path d="m25 0a25 25 0 0 0-25 25 25 25 0 0 0 25 25 25 25 0 0 0 25-25 25 25 0 0 0-25-25zm-12.2 13.8h24.4c1.6 0 2.8 1.3 2.8 2.8v16.9c0 1.6-1.3 2.8-2.8 2.8h-24.4c-1.5 0-2.8-1.3-2.8-2.8v-16.9c0-1.5 1.3-2.8 2.8-2.8zm0 2.8v2.4c1.3 1.1 3.4 2.7 7.9 6.2 1 0.8 2.9 2.6 4.3 2.6 1.4 0 3.3-1.8 4.3-2.6 4.5-3.5 6.6-5.2 7.9-6.2v-2.4h-24.4zm0 6v10.9h24.4v-10.9c-1.3 1.1-3.2 2.6-6.1 4.8-1.3 1-3.5 3.2-6 3.2-2.5 0-4.8-2.2-6-3.2-2.9-2.3-4.8-3.8-6.1-4.8z" fill="#dad4ca"/></svg>