<?xml version="1.0" encoding="UTF-8"?>
<!-- Created with Inkscape (http://www.inkscape.org/) -->
<svg id="SVGRoot" width="50px" height="50px" version="1.1" viewBox="0 0 50 50" xmlns="http://www.w3.org/2000/svg" xmlns:cc="http://creativecommons.org/ns#" xmlns:dc="http://purl.org/dc/elements/1.1/" xmlns:rdf="http://www.w3.org/1999/02/22-rdf-syntax-ns#">
 <metadata>
  <rdf:RDF>
   <cc:Work rdf:about="">
    <dc:format>image/svg+xml</dc:format>
    <dc:type rdf:resource="http://purl.org/dc/dcmitype/StillImage"/>
    <dc:title/>
   </cc:Work>
  </rdf:RDF>
 </metadata>
 <path d="m25 0a25 25 0 0 0-25 25 25 25 0 0 0 25 25 25 25 0 0 0 25-25 25 25 0 0 0-25-25zm-12.2 13.8h24.4c1.55 0 2.81 1.26 2.81 2.81v16.9c0 1.55-1.26 2.81-2.81 2.81h-24.4c-1.55 0-2.81-1.26-2.81-2.81v-16.9c0-1.55 1.26-2.81 2.81-2.81zm0 2.81v2.39c1.31 1.07 3.41 2.73 7.89 6.24 0.986 0.776 2.94 2.64 4.3 2.62 1.36 0.0217 3.31-1.84 4.3-2.62 4.48-3.51 6.57-5.17 7.89-6.24v-2.39h-24.4zm0 6v10.9h24.4v-10.9c-1.34 1.07-3.25 2.57-6.15 4.84-1.32 1.04-3.54 3.23-6.04 3.22-2.52 0.0135-4.76-2.21-6.04-3.22-2.9-2.27-4.81-3.77-6.15-4.84z" fill="#dad4ca"/>
</svg>
