<svg width="200" height="50" xmlns="http://www.w3.org/2000/svg"><g fill="#dad4ca"><path d="M25 0A25 25 0 000 25a25 25 0 0025 25 25 25 0 0025-25A25 25 0 0025 0zM12.8 13.8h24.4c1.6 0 2.8 1.3 2.8 2.8v16.9c0 1.6-1.3 2.8-2.8 2.8H12.8a2.9 2.9 0 01-2.8-2.8V16.6c0-1.5 1.3-2.8 2.8-2.8zm0 2.8V19l7.9 6.2c1 .8 2.9 2.6 4.3 2.6s3.3-1.8 4.3-2.6l7.9-6.2v-2.4zm0 6v10.9h24.4V22.6l-6.1 4.8c-1.3 1-3.5 3.2-6 3.2s-4.8-2.2-6-3.2L13 22.6zM75 0a25 25 0 00-25 25 25 25 0 0025 25 25 25 0 0025-25A25 25 0 0075 0zm3.6 10l4.1.2V15h-2.8c-2.2 0-2.6 1.1-2.6 2.6v3.7h5l-.7 5.3h-4.3V40h-5.5V26.6h-4.5v-5.3h4.5v-4.2c0-4.6 2.8-7 6.9-7zM125 0a25 25 0 00-25 25 25 25 0 0025 25 25 25 0 0025-25 25 25 0 00-25-25zm-11.6 12.5a25 25 0 0124.1 24.1c0 .5-.4.9-.9.9h-2.7a.9.9 0 01-.9-.9c-.4-10.7-9-19.2-19.7-19.7a.9.9 0 01-.9-.9v-2.7c0-.5.4-.9.9-.9zm0 8.1a17 17 0 0116 16c0 .5-.4.9-.9.9h-2.7c-.5 0-.9-.4-.9-.8A12.7 12.7 0 00113.2 25c-.5 0-.8-.4-.8-.9v-2.7c0-.5.4-.9.9-.9zm2.6 9.8c2 0 3.6 1.6 3.6 3.6s-1.6 3.6-3.6 3.6-3.6-1.6-3.6-3.6 1.6-3.6 3.6-3.6zM175 0a25 25 0 00-25 25 25 25 0 0025 25 25 25 0 0025-25 25 25 0 00-25-25zm5.8 12.8a6 6 0 014.5 1.9c1.4-.3 2.7-.8 3.9-1.5a6.5 6.5 0 01-2.7 3.4c1.2-.1 2.4-.5 3.5-1-.8 1.2-1.9 2.3-3.1 3.2v.8A17.4 17.4 0 01160 34.3l1.5.1c2.9 0 5.5-1 7.6-2.6a6 6 0 01-5.7-4.3l1.2.1 1.6-.2c-2.8-.6-4.9-3-4.9-6v-.1c.8.5 1.8.7 2.8.8a6 6 0 01-2.7-5.1c0-1.1.3-2.2.8-3.1 3 3.7 7.6 6.2 12.7 6.4l-.2-1.4a6 6 0 016.2-6.1z"/></g></svg>