<svg viewBox="0 0 50 50" xmlns="http://www.w3.org/2000/svg">RSS<path d="m25 0a25 25 0 0 0-25 25 25 25 0 0 0 25 25 25 25 0 0 0 25-25 25 25 0 0 0-25-25zm-11.6 12.5c13.1 0.5 23.6 11 24.1 24.1 0 0.5-0.4 0.9-0.9 0.9h-2.7c-0.5 0-0.9-0.4-0.9-0.9-0.4-10.7-9-19.2-19.7-19.7-0.5 0-0.9-0.4-0.9-0.9v-2.7c0-0.5 0.4-0.9 0.9-0.9zm0 8.1c8.6 0.5 15.5 7.4 16 16 0 0.5-0.4 0.9-0.9 0.9h-2.7c-0.5 0-0.9-0.4-0.9-0.8-0.4-6.2-5.4-11.2-11.7-11.7-0.5 0-0.8-0.4-0.8-0.9v-2.7c0-0.5 0.4-0.9 0.9-0.9zm2.6 9.8c2 0 3.6 1.6 3.6 3.6 0 2-1.6 3.6-3.6 3.6s-3.6-1.6-3.6-3.6c0-2 1.6-3.6 3.6-3.6z" fill="#dad4ca"/></svg>