<svg viewBox="0 0 50 50" xmlns="http://www.w3.org/2000/svg"><path d="m25 0a25 25 0 0 0-25 25 25 25 0 0 0 25 25 25 25 0 0 0 25-25 25 25 0 0 0-25-25zm5.8 12.8c1.8 0 3.4 0.7 4.5 1.9 1.4-0.3 2.7-0.8 3.9-1.5-0.5 1.4-1.4 2.6-2.7 3.4 1.2-0.1 2.4-0.5 3.5-1-0.8 1.2-1.9 2.3-3.1 3.2 0 0.3 0 0.5 0 0.8 0 8.1-6.2 17.5-17.5 17.5-3.5 0-6.7-1-9.4-2.8 0.5 0.1 1 0.1 1.5 0.1 2.9 0 5.5-1 7.6-2.6-2.7-0.1-5-1.8-5.7-4.3 0.4 0.1 0.8 0.1 1.2 0.1 0.6 0 1.1-0.1 1.6-0.2-2.8-0.6-4.9-3-4.9-6v-0.1c0.8 0.5 1.8 0.7 2.8 0.8-1.7-1.1-2.7-3-2.7-5.1 0-1.1 0.3-2.2 0.8-3.1 3 3.7 7.6 6.2 12.7 6.4-0.1-0.5-0.2-0.9-0.2-1.4 0-3.4 2.7-6.1 6.2-6.1z" fill="#dad4ca"/></svg>