<svg viewBox="0 0 100 100" xmlns="http://www.w3.org/2000/svg">Lucasdelirum<path d="M100 100H0V0h100v100" fill="#272d31"/><path d="M12.578 8.219v83.65h74.844V72.565H32.078V8.218H12.577" fill="#d2cdbd"/><g fill="#272d31"><path d="M37.497 85.902c-.013.074-.15.738-.1.988.037.175.375.287.675.287 1.901 0 2.964-1 3.44-3.44.475-2.45-.488-3.827-2.214-3.827-.263 0-.526.013-.613.15-.087.15-.125.401-.2.764zm5.866-2.202c-.563 2.927-2.814 4.002-5.328 4.002-.488 0-2.902-.012-3.352 0-.038-.075.012-.375.087-.462.15-.013.7-.05.788-.213.138-.25.213-.638.313-1.175l.9-4.603c.1-.538.188-.926.138-1.176-.025-.163-.563-.188-.713-.2-.038-.088.037-.388.1-.463.513.038 1.163.038 1.651.038s1.1-.025 1.789-.038c2.689 0 4.127 1.726 3.627 4.29M47.038 83c0-.225-.05-.488-.326-.488-.6 0-1.05 1.689-1.113 2.326.488 0 1.439-.913 1.439-1.838zm1.488.2c0 1.288-2.189 2.114-2.964 2.114-.013.037-.025.25-.025.312 0 .463.137 1.076.763 1.076.563 0 1.225-.775 1.263-.813.112 0 .188.3.188.375-.163.275-1.539 1.476-2.327 1.476-.888 0-1.438-.663-1.438-1.826 0-1.851 1.713-3.865 3.152-3.865.638 0 1.388.275 1.388 1.151M50.39 79.998c0-.238-.562-.238-.763-.238-.037-.05 0-.312.05-.362.689-.063 1.977-.338 2.252-.438.063.038.075.162.075.237 0 .1-.1.639-.163.939l-1.15 5.878a5.29 5.29 0 0 0-.05.413c0 .112.05.262.175.262.275 0 .85-.687.888-.762.087 0 .175.262.175.337-.213.4-1.313 1.501-1.989 1.501-.413 0-.788-.25-.788-.888 0-.175.088-.65.113-.75l1.063-5.466c.038-.225.113-.525.113-.663M55.644 79.848c0 .55-.45 1.063-.976 1.063-.425 0-.725-.35-.725-.788 0-.55.45-1.05.975-1.05.425 0 .726.337.726.775zm-2.002 3.54c0-.113-.062-.263-.187-.263-.275 0-.85.688-.888.763-.088 0-.175-.263-.175-.338.213-.4 1.263-1.5 1.938-1.5.5 0 .838.312.838.887 0 .175-.087.626-.112.75l-.463 2.327c-.012.05-.05.35-.05.413 0 .112.05.262.175.262.275 0 .85-.687.888-.762.088 0 .176.262.176.337-.213.4-1.314 1.501-1.99 1.501-.412 0-.787-.25-.787-.888 0-.175.087-.65.112-.75l.463-2.327c.012-.05.062-.35.062-.413M61.51 82.212c.1.125.2.313.2.55 0 .6-.388.9-.726.9-.25 0-.425-.15-.575-.225-.125-.062-.138-.1-.338-.1-.363 0-1.313 1.601-1.663 3.19l-.25 1.138c-.126.038-.563.075-.701.075-.137 0-.588-.037-.738-.075l.738-3.865c.012-.05.062-.35.062-.412 0-.113-.062-.263-.187-.263-.275 0-.85.688-.888.763-.087 0-.175-.263-.175-.338.213-.4 1.263-1.5 1.938-1.5.5 0 .838.312.838.887 0 .175-.087.626-.112.751-.025.15-.175.813-.175.8.312-1.15 1.388-2.439 2.064-2.439.362 0 .475.05.687.163M64.922 79.848c0 .55-.45 1.063-.976 1.063-.425 0-.725-.35-.725-.788 0-.55.45-1.05.975-1.05.426 0 .726.337.726.775zm-2.002 3.54c0-.113-.062-.263-.187-.263-.275 0-.85.688-.888.763-.087 0-.175-.263-.175-.338.213-.4 1.263-1.5 1.938-1.5.5 0 .838.312.838.887 0 .175-.087.626-.112.75l-.463 2.327c-.013.05-.05.35-.05.413 0 .112.05.262.175.262.276 0 .85-.687.888-.762.088 0 .175.262.175.337-.212.4-1.313 1.501-1.988 1.501-.413 0-.788-.25-.788-.888 0-.175.087-.65.112-.75l.463-2.327c.012-.05.062-.35.062-.413M69.175 85.589c-.475 1.013-1.65 2.176-2.189 2.176-.638 0-.788-.312-.788-1.076 0-.4.175-1.25.238-1.576.1-.512.175-.8.25-1.313.012-.05.063-.35.063-.413 0-.112-.063-.262-.188-.262-.275 0-.85.688-.888.763-.087 0-.175-.263-.175-.338.213-.4 1.263-1.5 1.939-1.5.5 0 .837.312.837.887 0 .175-.087.626-.112.75-.025.15-.288 1.489-.288 1.489-.025.15-.15.826-.15.95 0 .126.063.263.2.263.363 0 1.401-1.838 1.714-3.376l.175-.863c.125-.038.563-.076.7-.076s.588.038.739.076l-.726 3.864c-.013.063-.05.35-.05.413 0 .113.05.262.175.262.275 0 .85-.687.888-.762.088 0 .175.262.175.338-.212.4-1.313 1.5-1.988 1.5-.413 0-.788-.25-.788-.888 0-.087.037-.35.087-.625.05-.263.113-.525.15-.663M78.869 84.638c.037-.15.15-.825.15-.95 0-.126-.063-.263-.2-.263-.363 0-1.339 1.513-1.689 3.102l-.25 1.138c-.125.037-.563.075-.7.075-.138 0-.588-.038-.738-.075l.65-3.027c.037-.15.15-.825.15-.95 0-.126-.063-.263-.2-.263-.363 0-1.338 1.513-1.689 3.102l-.25 1.138c-.125.037-.563.075-.7.075s-.588-.038-.738-.075l.738-3.865c.012-.05.062-.35.062-.413 0-.112-.062-.262-.187-.262-.276 0-.85.688-.888.763-.088 0-.175-.263-.175-.338.212-.4 1.263-1.5 1.938-1.5.5 0 .838.312.838.887 0 .175-.088.626-.112.75-.025.15-.125.551-.125.551.375-.85 1.488-2.189 2.113-2.189.7 0 .9.375.9 1.088 0 .2-.037.513-.087.813.463-.838 1.4-1.9 1.964-1.9.7 0 .9.374.9 1.088 0 .462-.187 1.275-.25 1.613-.062.313-.212.913-.275 1.263-.025.125-.05.35-.05.413 0 .112.05.262.175.262.276 0 .85-.687.889-.762.087 0 .175.262.175.337-.213.4-1.314 1.501-1.99 1.501-.412 0-.787-.25-.787-.888 0-.175.087-.65.112-.75.125-.563.326-1.488.326-1.488M17.164 16.944h10.463v2.31H18.73v2.397h-1.565v-4.707M17.02 34.653c0-.475.049-.89.147-1.246.1-.356.24-.65.42-.884.181-.233.416-.423.704-.568a3.34 3.34 0 0 1 .953-.306c.347-.059.752-.088 1.214-.088h7.17v2.284h-7.51c-.164 0-.304.004-.42.013a2.422 2.422 0 0 0-.376.06 1.08 1.08 0 0 0-.33.13.64.64 0 0 0-.216.236.755.755 0 0 0-.085.37c0 .142.029.264.085.365.058.101.129.179.215.234.086.054.197.097.331.129.135.031.261.051.38.06.117.008.256.012.416.012h7.51v2.291h-7.17c-.58 0-1.074-.05-1.482-.148a2.83 2.83 0 0 1-1.067-.495 2.027 2.027 0 0 1-.672-.953c-.145-.404-.218-.903-.218-1.496M17.02 51.181c0-.584.08-1.083.242-1.495.162-.413.401-.738.717-.975.315-.238.679-.41 1.091-.515a5.925 5.925 0 0 1 1.452-.157h3.73c.567 0 1.06.052 1.479.157.419.106.785.277 1.098.515.313.237.55.562.707.972.158.41.237.91.237 1.498 0 .564-.072 1.045-.215 1.442-.143.398-.353.71-.631.935a2.601 2.601 0 0 1-.947.485c-.353.1-.763.149-1.23.149h-.922v-2.26h1.054c.164 0 .288-.002.373-.006.084-.004.192-.019.325-.044s.232-.062.3-.11a.622.622 0 0 0 .18-.224.787.787 0 0 0 .078-.367.786.786 0 0 0-.079-.366.643.643 0 0 0-.19-.23.888.888 0 0 0-.302-.126 1.971 1.971 0 0 0-.35-.057 6.484 6.484 0 0 0-.392-.01h-4.878c-.42 0-.74.055-.962.165-.22.109-.331.317-.331.624 0 .14.026.258.079.357.052.099.114.174.186.224a.82.82 0 0 0 .303.117c.13.027.244.043.34.047.097.004.225.007.385.007h1.098v2.259h-.902a5.33 5.33 0 0 1-1.016-.089 3.08 3.08 0 0 1-.855-.3 2.12 2.12 0 0 1-.672-.549 2.482 2.482 0 0 1-.426-.86 4.29 4.29 0 0 1-.155-1.213M20.768 66.662v1.117l4.051-.561zm-3.604-2.745L27.627 65.9v2.613L17.164 70.48v-2.133l2.222-.36V66.46l-2.222-.353v-2.19M17.02 83.275c0-.993.263-1.732.791-2.218s1.37-.748 2.527-.785l.303 1.98c-.656.01-1.132.088-1.429.238-.297.149-.445.373-.445.672 0 .391.253.587.758.587.281 0 .541-.05.779-.152.237-.1.44-.225.609-.372.168-.147.366-.354.593-.619l.801-.927c.194-.223.37-.408.53-.556s.35-.291.572-.432c.22-.14.466-.245.735-.312.27-.068.566-.101.89-.101.87 0 1.544.26 2.02.782.474.522.714 1.237.719 2.146 0 .311-.034.594-.101.849-.068.254-.156.469-.265.644-.11.174-.248.328-.414.46a2.528 2.528 0 0 1-.498.316 3.143 3.143 0 0 1-.562.195 4.269 4.269 0 0 1-.571.107 8.464 8.464 0 0 1-.555.041l-.26-2c.177-.004.324-.01.44-.016a4.91 4.91 0 0 0 .369-.035c.13-.016.235-.04.315-.069a.985.985 0 0 0 .224-.117.403.403 0 0 0 .148-.183.634.634 0 0 0 .038-.261.535.535 0 0 0-.255-.464 1.01 1.01 0 0 0-.559-.161 1.88 1.88 0 0 0-.54.072 1.402 1.402 0 0 0-.47.253c-.15.12-.265.217-.34.293-.076.076-.194.202-.354.379l-.782.89a7.868 7.868 0 0 1-.628.63 5.21 5.21 0 0 1-.682.505c-.254.16-.534.281-.839.363a3.772 3.772 0 0 1-.981.123c-.758 0-1.386-.252-1.884-.757-.499-.505-.748-1.167-.748-1.988"/></g><g fill="#8c4827"><path d="M59.344 9.453H55.02V8.15h4.324v1.303M61.513 10.756h-8.685V9.454h8.685v1.302M62.6 12.06h-8.684v-1.303H62.6v1.302M56.084 14.666h-4.342V12.06h4.342v2.606M60.428 13.362h1.085V12.06h-1.085v1.302"/></g><g fill="#623114"><path d="M53.916 12.06H52.83v-1.303h1.086v1.302M58.256 13.362h-2.17V12.06h2.17v1.302M59.344 13.362h1.085V12.06h-1.085v1.302M61.513 13.362h1.085V12.06h-1.085v1.302M56.084 14.666h1.086v-1.303h-1.086v1.303"/></g><g fill="#8c4827"><path d="M51.744 15.969H55v-1.303h-3.256v1.303"/><path d="M52.828 18.572h1.086v-2.605h-1.086v2.605M56.084 15.969h1.086v-1.303h-1.086v1.303M60.428 18.572h1.085v-1.303h-1.085v1.303"/></g><path d="M51.744 17.269h1.085v-1.303h-1.085v1.303" fill="#623114"/><g fill="#cb6060"><path d="M58.256 13.362h1.086V12.06h-1.086v1.302M57.172 14.666h3.256v-1.303h-3.256v1.303"/><path d="M57.172 17.269h1.085v-2.606h-1.085v2.606"/><path d="M58.256 17.269h3.257v-1.303h-3.257v1.303M55 18.572h5.428v-1.303H55v1.303M55 17.269h1.086v-1.303H55v1.303M58.256 19.875h-2.17v-1.302h2.17v1.302M60.428 21.178h-3.256v-1.302h3.256v1.302M55 22.481h1.086v-2.605H55v2.605"/><path d="M56.084 23.781h1.086v-2.605h-1.086v2.605M57.172 23.781h1.085V22.48h-1.085v1.302"/></g><path d="M58.256 15.969h1.086v-1.303h-1.086v1.303" fill="#040606"/><g fill="#c55245"><path d="M59.344 15.969h1.085v-1.303h-1.085v1.303M56.084 17.269h1.086v-1.303h-1.086v1.303"/><path d="M55 15.969h1.086v-1.303H55v1.303M55 18.572h-1.085v-2.605H55v2.605M55 19.875h1.086v-1.302H55v1.302M58.256 19.875h2.172v-1.302h-2.172v1.302M56.084 21.178h1.086v-1.302h-1.086v1.302M53.916 22.481H55v-2.605h-1.085v2.605"/></g><g fill="#8c4827"><path d="M53.916 19.875H55v-1.302h-1.085v1.302M50.656 21.178h2.172v-2.605h-2.172v2.605M57.172 22.481h2.17v-1.303h-2.17v1.303"/></g><path d="M52.828 21.178h1.086v-2.605h-1.086v2.605" fill="#623114"/><g fill="#a3a5a4"><path d="M53.916 23.781h2.17V22.48h-2.17v1.302M53.916 25.084h-2.172v-1.302h2.172v1.302M56.084 25.084h3.257v-1.302h-3.257v1.302M50.656 26.388h1.086v-1.303h-1.086v1.303M50.656 28.994h-1.085v-2.606h1.085v2.606M49.572 31.6h-1.086v-2.605h1.086V31.6M59.344 27.69h1.085v-1.302h-1.085v1.303"/><path d="M60.428 28.994h1.085V27.69h-1.085v1.303M61.513 34.203h1.085v-2.605h-1.085v2.605M53.916 30.297H55v-2.605h-1.085v2.605M55 31.6h1.086v-1.303H55V31.6M52.828 30.297h-1.086v-1.303h1.086v1.303M52.828 32.9h-1.086v-1.302h1.086V32.9M52.828 35.506h-4.342v-1.302h4.342v1.302M55 36.81h-1.085v-3.908H55v3.907M55 36.81h1.086v-2.606H55v2.605"/><path d="M56.084 36.81h1.086v-1.303h-1.086v1.302M58.256 36.81h1.086v-2.606h-1.086v2.605"/></g><path d="M53.916 36.81H52.83v-7.816h1.086v7.815" fill="#848888"/><path d="M51.744 34.203h-4.342V32.9h4.342v1.303" fill="#a3a5a4"/><g fill="#848888"><path d="M53.916 31.6H55v-1.303h-1.085V31.6M61.513 36.81h-1.086v-7.816h1.086v7.815"/><path d="M59.344 36.81h1.085v-1.303h-1.085v1.302M58.256 36.81h-1.085v-1.303h1.085v1.302M51.744 36.81h1.085v-1.303h-1.085v1.302"/></g><g fill="#438bd1"><path d="M58.256 26.388h2.172v-1.303h-2.172v1.303M59.344 28.994h1.085V27.69h-1.085v1.303M59.344 31.6h1.085v-1.303h-1.085V31.6"/></g><g fill="#c6c7c5"><path d="M56.084 25.084h-2.17v-1.302h2.17v1.302M51.744 26.388h6.513v-1.303h-6.513v1.303M50.656 27.69h8.685v-1.302h-8.685v1.303"/><path d="M50.656 28.994h3.257V27.69h-3.257v1.303"/><path d="M51.744 32.9h-2.171v-3.908h2.17V32.9"/><path d="M52.828 31.6h-1.086v-1.303h1.086V31.6M51.744 34.203h1.085V32.9h-1.085v1.303M59.344 30.297h-4.342v-2.605h4.342v2.605M59.344 30.297h1.085v-1.303h-1.085v1.303M59.344 31.6h-3.257v-1.303h3.257V31.6"/><path d="M53.916 32.9h6.513v-1.302h-6.513V32.9M60.428 34.203H55V32.9h5.428v1.303M58.256 35.506h-2.17v-1.302h2.17v1.302M60.428 35.506h-1.085v-1.302h1.085v1.302"/></g><path d="M47.4 35.506h1.086v-1.302H47.4v1.302M48.487 32.9h1.086v-1.302h-1.086V32.9" fill="#848888"/><path d="M61.513 35.506h1.085v-1.302h-1.085v1.302M48.487 39.416h1.086v-3.908h-1.086v3.908" fill="#8c4827"/><g fill="#c55245"><path d="M61.513 36.81h1.085v-1.303h-1.085v1.302M49.572 36.81h2.17v-1.303h-2.17v1.302M49.572 42.019h1.085v-2.606h-1.085v2.606M52.828 42.019h-1.086v-1.303h1.086v1.303M52.828 43.322h1.086v-1.303h-1.086v1.303M52.828 45.928h1.086v-1.302h-1.086v1.302M61.513 42.019h1.085v-2.606h-1.085v2.606"/></g><g fill="#cb6060"><path d="M49.572 39.416h2.17V36.81h-2.17v2.606"/><path d="M51.744 39.416h-1.086v3.908h1.086v-3.908M51.744 44.625h1.085V42.02h-1.085v2.605"/><path d="M52.828 44.625h1.086v-1.302h-1.086v1.302M61.513 39.416h1.085V36.81h-1.085v2.606M62.6 43.322h1.086v-2.605H62.6v2.605"/></g><g fill="#040606"><path d="M51.744 39.416h2.171V36.81h-2.171v2.606"/><path d="M51.744 39.416h1.085v1.302h-1.085v-1.302M60.428 38.112h1.085V36.81h-1.085v1.302M60.428 40.719h1.085v-1.303h-1.085v1.303M60.428 43.322H62.6v-1.303h-2.17v1.303"/></g><g fill="#2c2d2e"><path d="M53.916 38.112h2.17V36.81h-2.17v1.302M53.916 38.112H55v2.606h-1.085v-2.606"/><path d="M53.916 42.019H52.83v-2.606h1.086v2.606M60.428 43.322h-1.085v-6.514h1.085v6.514M57.172 44.625h4.342v-1.302h-4.342v1.302M56.084 45.928h2.171v-1.302h-2.17v1.302M56.084 45.928h1.086v2.605h-1.086v-2.605M52.828 49.834h1.086v-3.908h-1.086v3.908"/><path d="M51.744 51.138h1.085v-2.606h-1.085v2.606M52.828 52.44H55v-1.302h-2.17v1.303M56.084 51.138H55v-1.303h1.085v1.302M60.428 52.44h-1.085v-3.908h1.085v3.909M60.428 52.44h1.085v-2.605h-1.085v2.606M60.428 47.231h1.085v-2.605h-1.085v2.605"/></g><path d="M62.6 44.625h1.086v-1.302H62.6v1.302" fill="#c55245"/><g fill="#3e4042"><path d="M56.084 38.112h3.257V36.81h-3.257v1.302M58.256 40.719H55v-2.606h3.256v2.606M58.256 40.719h1.086v-1.303h-1.086v1.303M53.916 40.719h4.342v1.302h-4.342V40.72"/><path d="M53.916 43.322h5.427v-1.303h-5.427v1.303M53.916 43.322h3.256v1.302h-3.256v-1.302M53.916 49.834h2.17v-5.21h-2.17v5.21M52.828 49.834H55v1.303h-2.17v-1.303M60.428 49.834h1.085V47.23h-1.085v2.605"/></g><g fill="#cb9942"><path d="M58.256 39.416h1.086v-1.303h-1.086v1.303M60.428 39.416h1.085v-1.303h-1.085v1.303M60.428 42.019h1.085v-1.303h-1.085v1.303M58.256 42.019h1.086v-1.303h-1.086v1.303"/></g><g fill="#8c4827"><path d="M50.656 43.322h-1.085v-1.303h1.085v1.303M50.656 44.625h1.086v-1.302h-1.086v1.302M51.744 45.928h1.085v-1.302h-1.085v1.302"/></g><g fill="#040606"><path d="M58.256 45.928h2.172v-1.302h-2.172v1.302"/><path d="M60.428 48.531h-3.256v-2.605h3.256v2.605M59.344 53.744h-3.257v-5.21h3.257v5.21M61.513 53.744h1.085V43.323h-1.085v10.42"/><path d="M61.513 53.744h-2.171V52.44h2.17v1.303M55 55.047h1.086v-3.908H55v3.908"/><path d="M56.084 53.744h2.171v1.302h-2.17v-1.302M51.744 48.531h1.085v-2.605h-1.085v2.605M51.744 55.047h-1.086V47.23h1.086v7.816M51.744 55.047h1.085v-3.908h-1.085v3.908"/><path d="M52.828 55.047H55v-2.605h-2.17v2.605"/></g><g fill="#848888"><path d="M51.744 56.35H55v-1.303h-3.256v1.303M51.744 62.862h2.171V56.35h-2.171v6.513M58.256 55.047h3.257v-1.303h-3.257v1.303"/><path d="M58.256 58.953h2.172v-3.908h-2.172v3.908M60.428 58.953h-1.085v2.605h1.085v-2.605M60.428 62.862h1.085v-2.605h-1.085v2.606"/></g><g fill="#a3a5a4"><path d="M61.513 55.047h1.085v-1.303h-1.085v1.303M60.428 55.047h1.085v5.21h-1.085v-5.21M55 56.35h2.171v-1.303H55v1.303M53.916 56.35h2.17v1.302h-2.17V56.35"/><path d="M53.916 57.65H55v5.21h-1.085v-5.21"/></g><g fill="#c6c7c5"><path d="M56.084 58.953h1.086v-2.605h-1.086v2.605"/><path d="M56.084 62.862H55v-5.21h1.085v5.21M61.513 62.862h1.085v-7.815h-1.085v7.815"/></g><g fill="#040606"><path d="M56.084 64.166h-5.427v-1.303h5.427v1.303M57.172 65.469h-3.257v-1.303h3.257v1.303M56.084 65.469h1.086v1.302h-1.086V65.47M57.172 69.375h1.085V66.77h-1.085v2.605M50.656 64.166h1.086v2.605h-1.086v-2.605M50.656 69.375h-1.085v-3.908h1.085v3.908"/><path d="M50.631 69.375h6.54v-1.302h-6.54v1.302M59.344 66.769H62.6V62.86h-3.256v3.908M62.6 66.769h5.428v-1.303H62.6v1.303"/></g><g fill="#2c2d2e"><path d="M51.744 66.769h4.342v-1.303h-4.342v1.303M50.656 68.072h6.514v-1.303h-6.514v1.303M62.6 65.469h4.342v-1.303H62.6v1.303"/></g><path d="M51.744 65.469h1.085v-1.303h-1.085v1.303M62.6 64.166h1.086v-1.303H62.6v1.303" fill="#c55245"/><path d="M52.828 65.469h1.086v-1.303h-1.086v1.303M63.684 64.166h1.086v-1.303h-1.086v1.303" fill="#cb9942"/></svg>