<?xml version="1.0" encoding="UTF-8" standalone="no"?>
<svg id="SVGRoot" xmlns="http://www.w3.org/2000/svg" height="70px" width="65px" version="1.1" viewBox="0 0 65 70">
 <g fill="#19273d" transform="matrix(.925 0 0 .925 .901 -.991)">
  <path d="m7.35 37.3 27-34.2 27 34.2z" stroke-width=".781" class="st1"/>
  <g class="st2" style="enable-background:new" transform="matrix(.781 0 0 .781 -16.2 -8.17)">
   <path d="m47.7 77h-10.3v28.6h-4.2v-29h-10.3v-3.5h24.8z" class="st1"/>
   <path d="m76.5 90.7c0 3.1-0.5 5.9-1.6 8.2s-2.6 4.1-4.5 5.4c-1.9 1.2-4.2 1.8-6.8 1.8-2.5 0-4.8-0.6-6.7-1.9-2-1.2-3.5-3-4.5-5.3-1.1-2.3-1.6-5-1.7-8v-2.3c0-3.1 0.5-5.8 1.6-8.2s2.6-4.2 4.5-5.4c2-1.3 4.2-1.9 6.7-1.9 2.6 0 4.8 0.6 6.8 1.9 2 1.2 3.5 3 4.5 5.4 1.1 2.4 1.6 5.1 1.6 8.2v2.1zm-4.2-2.1c0-3.8-0.8-6.7-2.3-8.7s-3.7-3-6.4-3-4.8 1-6.3 3-2.3 4.9-2.4 8.5v2.4c0 3.7 0.8 6.6 2.3 8.7s3.7 3.2 6.4 3.2 4.8-1 6.3-3 2.3-4.8 2.3-8.5v-2.6z" class="st1"/>
   <path d="m87.1 93.1v12.5h-4.2v-32h11.8c3.5 0 6.3 0.9 8.2 2.7 2 1.8 3 4.2 3 7.1 0 3.1-1 5.5-2.9 7.2s-4.7 2.5-8.4 2.5zm0-3.5h7.6c2.3 0 4-0.5 5.2-1.6s1.8-2.6 1.8-4.6c0-1.9-0.6-3.4-1.8-4.6-1.2-1.1-2.9-1.7-5-1.8h-7.8z" class="st1"/>
  </g>
 </g>
</svg>
